<svg xmlns="http://www.w3.org/2000/svg" viewBox="0 0 1024 1024"><path d="M599.04 307.3024L401.7152 400.6912c-7.168 3.9936-15.5648 7.168-22.8352 11.1104-21.6064-18.1248-46.2336-26.3168-76.6976-26.3168A126.3616 126.3616 0 0 0 176.128 512a126.3616 126.3616 0 0 0 125.952 126.464 124.928 124.928 0 0 0 84.48-32.4608l214.3744 103.1168A126.3616 126.3616 0 0 0 722.1248 870.4a126.3616 126.3616 0 0 0 126.0032-126.464 126.3616 126.3616 0 0 0-125.952-126.5152c-34.9184 0-66.4064 14.336-89.2928 37.3248l-211.6608-101.632a126.976 126.976 0 0 0-2.56-89.3952l14.336-7.9872 194.6112-91.9552a125.952 125.952 0 0 0 94.5152 42.8032 126.3616 126.3616 0 0 0 126.0032-126.464A126.3616 126.3616 0 0 0 722.176 153.6 126.3616 126.3616 0 0 0 599.04 307.3024z m60.1088-27.1872c0-34.816 28.3136-63.2832 62.976-63.2832 34.6624 0 62.976 28.4672 62.976 63.2832 0 34.7648-28.3136 64.9216-62.976 63.232-52.48-2.7648-62.976-59.2384-62.976-63.232zM302.08 448.768a63.3344 63.3344 0 0 1 0 126.464 63.3344 63.3344 0 0 1 0-126.464z m419.9936 231.936a63.3344 63.3344 0 0 1 0 126.464 63.3344 63.3344 0 0 1 0-126.464z" fill="#ffffff"/></svg>
